<svg xmlns="http://www.w3.org/2000/svg" xmlns:xlink="http://www.w3.org/1999/xlink" width="500" zoomAndPan="magnify" viewBox="0 0 375 374.999991" height="500" preserveAspectRatio="xMidYMid meet" version="1.0"><defs><clipPath id="a78f60849e"><path d="M 23.152344 1 L 171.847656 1 L 171.847656 149.691406 L 23.152344 149.691406 Z M 23.152344 1 " clip-rule="nonzero"/></clipPath><clipPath id="500e0f2a7f"><path d="M 97.5 1 C 56.4375 1 23.152344 34.285156 23.152344 75.347656 C 23.152344 116.40625 56.4375 149.691406 97.5 149.691406 C 138.5625 149.691406 171.847656 116.40625 171.847656 75.347656 C 171.847656 34.285156 138.5625 1 97.5 1 Z M 97.5 1 " clip-rule="nonzero"/></clipPath><clipPath id="62ed87a1ed"><path d="M 0.152344 0 L 148.847656 0 L 148.847656 148.691406 L 0.152344 148.691406 Z M 0.152344 0 " clip-rule="nonzero"/></clipPath><clipPath id="4d1f0f0b20"><path d="M 74.5 0 C 33.4375 0 0.152344 33.285156 0.152344 74.347656 C 0.152344 115.40625 33.4375 148.691406 74.5 148.691406 C 115.5625 148.691406 148.847656 115.40625 148.847656 74.347656 C 148.847656 33.285156 115.5625 0 74.5 0 Z M 74.5 0 " clip-rule="nonzero"/></clipPath><clipPath id="91b444c062"><rect x="0" width="149" y="0" height="149"/></clipPath><clipPath id="0653fee49d"><path d="M 6.960938 102.539062 L 188 102.539062 L 188 260 L 6.960938 260 Z M 6.960938 102.539062 " clip-rule="nonzero"/></clipPath><clipPath id="d5bf647cce"><path d="M 98.238281 103.21875 L 187.886719 258.417969 C 188.039062 258.6875 188.039062 259.015625 187.886719 259.285156 C 187.730469 259.550781 187.445312 259.714844 187.136719 259.714844 L 7.84375 259.714844 C 7.535156 259.714844 7.25 259.550781 7.09375 259.285156 C 6.941406 259.015625 6.941406 258.6875 7.09375 258.417969 L 96.738281 103.21875 C 96.894531 102.953125 97.179688 102.789062 97.488281 102.789062 C 97.800781 102.789062 98.085938 102.953125 98.238281 103.21875 Z M 98.238281 103.21875 " clip-rule="nonzero"/></clipPath><clipPath id="344c257fcf"><path d="M 0.960938 0.601562 L 182 0.601562 L 182 157.800781 L 0.960938 157.800781 Z M 0.960938 0.601562 " clip-rule="nonzero"/></clipPath><clipPath id="299de40bbc"><path d="M 92.238281 1.21875 L 181.886719 156.417969 C 182.039062 156.6875 182.039062 157.015625 181.886719 157.285156 C 181.730469 157.550781 181.445312 157.714844 181.136719 157.714844 L 1.84375 157.714844 C 1.535156 157.714844 1.25 157.550781 1.09375 157.285156 C 0.941406 157.015625 0.941406 156.6875 1.09375 156.417969 L 90.738281 1.21875 C 90.894531 0.953125 91.179688 0.789062 91.488281 0.789062 C 91.800781 0.789062 92.085938 0.953125 92.238281 1.21875 Z M 92.238281 1.21875 " clip-rule="nonzero"/></clipPath><clipPath id="1a1c5cff8c"><rect x="0" width="182" y="0" height="158"/></clipPath><clipPath id="a31a8b98c7"><path d="M 7 102 L 188 102 L 188 260 L 7 260 Z M 7 102 " clip-rule="nonzero"/></clipPath><clipPath id="41a08e98d9"><path d="M 98.25 103.21875 L 187.878906 258.394531 C 188.035156 258.664062 188.035156 258.992188 187.878906 259.261719 C 187.726562 259.527344 187.441406 259.695312 187.128906 259.695312 L 7.867188 259.695312 C 7.558594 259.695312 7.269531 259.527344 7.117188 259.261719 C 6.960938 258.992188 6.960938 258.664062 7.117188 258.394531 L 96.746094 103.21875 C 96.902344 102.953125 97.1875 102.789062 97.5 102.789062 C 97.808594 102.789062 98.09375 102.953125 98.25 103.21875 Z M 98.25 103.21875 " clip-rule="nonzero"/></clipPath><clipPath id="9b9013be70"><rect x="0" width="195" y="0" height="268"/></clipPath></defs><rect x="-37.5" width="450" fill="#ffffff" y="-37.499999" height="449.999989" fill-opacity="1"/><rect x="-37.5" width="450" fill="#ffffff" y="-37.499999" height="449.999989" fill-opacity="1"/><g transform="matrix(1, 0, 0, 1, 90, 57)"><g clip-path="url(#9b9013be70)"><g clip-path="url(#a78f60849e)"><g clip-path="url(#500e0f2a7f)"><g transform="matrix(1, 0, 0, 1, 23, 1)"><g clip-path="url(#91b444c062)"><g clip-path="url(#62ed87a1ed)"><g clip-path="url(#4d1f0f0b20)"><path fill="#fd6a3d" d="M 0.152344 0 L 148.847656 0 L 148.847656 148.691406 L 0.152344 148.691406 Z M 0.152344 0 " fill-opacity="1" fill-rule="nonzero"/></g></g></g></g></g></g><g clip-path="url(#0653fee49d)"><g clip-path="url(#d5bf647cce)"><g transform="matrix(1, 0, 0, 1, 6, 102)"><g clip-path="url(#1a1c5cff8c)"><g clip-path="url(#344c257fcf)"><g clip-path="url(#299de40bbc)"><path fill="#fedeb8" d="M 0.34375 -0.078125 L 182.507812 -0.078125 L 182.507812 158 L 0.34375 158 Z M 0.34375 -0.078125 " fill-opacity="1" fill-rule="nonzero"/></g></g></g></g></g></g><g clip-path="url(#a31a8b98c7)"><g clip-path="url(#41a08e98d9)"><path stroke-linecap="butt" transform="matrix(2.643916, 0, 0, 2.643916, 6.366341, 101.921781)" fill="none" stroke-linejoin="miter" d="M 34.752869 0.490549 L 68.652931 59.1822 C 68.712029 59.284144 68.712029 59.408249 68.652931 59.510193 C 68.59531 59.61066 68.485979 59.67419 68.36926 59.67419 L 0.567661 59.67419 C 0.450942 59.67419 0.341611 59.61066 0.28399 59.510193 C 0.224892 59.408249 0.224892 59.284144 0.28399 59.1822 L 34.184052 0.490549 C 34.24315 0.390082 34.351003 0.328029 34.469199 0.328029 C 34.585918 0.328029 34.693771 0.390082 34.752869 0.490549 Z M 34.752869 0.490549 " stroke="#f4f4f4" stroke-width="1.13468" stroke-opacity="1" stroke-miterlimit="4"/></g></g></g></g></svg>